<?xml version="1.0" standalone="no"?>
<!DOCTYPE svg PUBLIC "-//W3C//DTD SVG 20010904//EN"
 "http://www.w3.org/TR/2001/REC-SVG-20010904/DTD/svg10.dtd">
<svg version="1.0" xmlns="http://www.w3.org/2000/svg"
 width="700.000000pt" height="700.000000pt" viewBox="0 0 700.000000 700.000000"
 preserveAspectRatio="xMidYMid meet">
<metadata>
Created by potrace 1.14, written by Peter Selinger 2001-2017
</metadata>
<g transform="translate(0.000000,700.000000) scale(0.100000,-0.100000)"
fill="#000000" stroke="none">
<path d="M4286 6719 c-574 -58 -1078 -462 -1270 -1017 -55 -158 -76 -276 -83
-452 l-5 -155 73 70 c41 39 86 81 100 93 l26 23 86 -94 86 -93 -163 -154 -164
-153 20 -71 c16 -58 69 -206 103 -290 7 -16 5 -17 -16 -11 -61 17 -416 201
-515 267 -265 177 -425 334 -838 827 -244 291 -313 350 -451 386 -195 50 -389
-44 -478 -233 -28 -60 -32 -77 -32 -157 0 -61 6 -107 18 -142 43 -123 102
-187 574 -621 549 -506 818 -811 944 -1071 l34 -70 60 -16 c33 -9 182 -49 330
-88 l270 -72 23 -85 c58 -221 -6 -446 -175 -612 l-48 -48 -240 65 c-132 35
-247 64 -255 64 -8 0 -35 -32 -60 -71 -91 -143 -201 -244 -587 -542 -273 -211
-411 -359 -507 -546 -96 -185 -134 -351 -143 -625 -7 -231 6 -316 68 -443 112
-230 378 -361 625 -309 285 61 387 295 284 651 -29 98 -32 120 -28 205 5 107
27 181 80 268 85 140 204 249 353 323 120 60 200 80 320 80 151 0 223 -28 309
-120 78 -83 110 -167 171 -450 52 -240 72 -315 112 -414 91 -229 205 -347 447
-462 248 -117 521 -133 720 -40 146 68 220 168 219 300 -1 162 -105 326 -319
502 -139 114 -186 170 -244 289 -105 214 -133 488 -85 824 34 233 100 452 196
647 116 239 188 284 599 379 629 145 761 187 986 316 322 183 560 512 605 835
34 246 -104 429 -334 442 -100 6 -170 -9 -272 -58 -104 -50 -195 -126 -294
-247 -119 -146 -217 -220 -379 -288 -221 -93 -610 -151 -873 -130 l-91 7 46
30 46 30 0 168 c0 92 3 188 6 214 l7 46 123 0 124 0 0 -107 0 -107 51 49 c129
126 321 383 416 555 53 97 123 259 160 368 61 182 87 336 106 624 l2 37 75
-56 c156 -117 323 -310 442 -510 55 -93 62 -82 61 92 -1 150 -27 269 -86 399
-20 42 -31 76 -26 76 40 0 276 -147 442 -276 59 -46 107 -79 107 -73 0 23 -52
163 -84 228 -57 113 -159 234 -259 308 -26 19 -47 37 -45 38 7 7 189 -26 253
-46 39 -11 118 -43 178 -69 59 -27 107 -45 107 -41 0 4 -14 29 -31 57 -125
197 -358 355 -634 430 -194 52 -396 53 -589 3 l-81 -21 -136 46 c-246 82 -478
115 -673 95z m-218 -765 c94 -47 146 -131 146 -239 0 -88 -27 -148 -91 -205
-88 -77 -207 -89 -310 -30 -190 109 -175 388 27 479 67 30 161 28 228 -5z
m609 -454 c162 -81 201 -286 80 -417 -100 -108 -246 -123 -362 -35 -94 71
-123 170 -86 292 18 58 32 82 70 120 52 52 92 67 182 69 44 1 69 -6 116 -29z
m-1112 -601 c52 -39 95 -76 95 -81 0 -14 -272 -368 -283 -368 -7 0 -150 105
-191 141 -8 7 55 95 212 297 35 45 66 82 68 82 3 0 47 -32 99 -71z m412 -195
c70 -22 113 -41 110 -48 -2 -6 -33 -101 -67 -211 -35 -110 -65 -202 -67 -204
-7 -9 -243 74 -240 84 2 5 33 101 68 213 35 111 68 202 72 202 5 0 60 -16 124
-36z"/>
<path d="M515 4115 c-91 -137 -150 -299 -174 -478 -11 -77 -16 -417 -6 -417 2
0 104 56 225 125 122 69 230 125 239 125 10 0 308 -77 662 -171 1324 -350
1249 -332 1266 -317 32 26 63 111 63 170 0 31 -3 59 -8 62 -4 2 -435 118 -957
256 -588 156 -956 259 -966 269 -9 9 -75 116 -148 239 -72 122 -133 222 -136
222 -2 0 -29 -38 -60 -85z"/>
<path d="M4431 2698 c-34 -76 -65 -168 -58 -174 6 -6 64 -22 727 -197 525
-139 600 -156 735 -170 307 -33 585 -59 595 -55 6 2 -42 26 -107 55 -65 28
-217 95 -338 148 -188 83 -258 109 -480 172 -360 102 -1021 283 -1035 283 -6
0 -24 -28 -39 -62z"/>
</g>
</svg>
